<mxfile host="app.diagrams.net" agent="Mozilla/5.0 (Macintosh; Intel Mac OS X 10_15_7) AppleWebKit/537.36 (KHTML, like Gecko) Chrome/129.0.0.0 Safari/537.36" version="27.2.0" pages="2">
  <diagram name="第 1 页" id="-1XyAgWR0v9BpElgC3VY">
    <mxGraphModel dx="848" dy="608" grid="1" gridSize="10" guides="1" tooltips="1" connect="1" arrows="1" fold="1" page="1" pageScale="1" pageWidth="827" pageHeight="1169" math="0" shadow="0">
      <root>
        <mxCell id="0" />
        <mxCell id="1" parent="0" />
        <mxCell id="SDQJAYspS0IM2mAFikAx-35" value="&lt;font style=&quot;font-size: 24px;&quot; face=&quot;楷体-简&quot;&gt;中考&lt;/font&gt;" style="text;html=1;align=center;verticalAlign=middle;resizable=0;points=[];autosize=1;strokeColor=none;fillColor=none;" vertex="1" parent="1">
          <mxGeometry x="45" y="303" width="70" height="40" as="geometry" />
        </mxCell>
      </root>
    </mxGraphModel>
  </diagram>
  <diagram name="第 2 页" id="JTctNPhDO0_cTUdY2UnM">
    <mxGraphModel grid="1" page="1" gridSize="10" guides="1" tooltips="1" connect="1" arrows="1" fold="1" pageScale="1" pageWidth="827" pageHeight="1169" math="0" shadow="0">
      <root>
        <mxCell id="0" />
        <mxCell id="1" parent="0" />
        <mxCell id="mtNwRGI29goeCO25M2b_-1" value="" style="shape=stencil(lZLdDoIwDIWfZrfN1jJk14jvQcKQRWRkgD9vL3NGAZWEu7PufCdbW0ZpV+WtZsi73tmTvpqirxjtGaJpKu1MPypGGaO0tE4fnR2aIpzb3Du9OtuLT7gFTnAOnHsM+f1ViiHePSuHQNSmmRBKAkZbgARBbAKkAokzIAGi/36Klv4IxEq+EKDmX3734LcfhNry/q+OyvV8BErm+XwJjOIzwdLUdViA6f1y4mMpbAtlDw==);fillColor=none;strokeColor=light-dark(#000000,#CCFFE6);sketch=1;hachureGap=4;jiggle=2;curveFitting=1;fontFamily=Architects Daughter;fontSource=https%3A%2F%2Ffonts.googleapis.com%2Fcss%3Ffamily%3DArchitects%2BDaughter;" vertex="1" parent="1">
          <mxGeometry x="384.5555691123009" y="-274.11111640930176" width="1.16668701171875" height="0.33333396911621094" as="geometry" />
        </mxCell>
        <mxCell id="Uzw1EFgtotHhk8JcJdkp-1" value="" style="shape=stencil(lVjZbhsxDPwavxKiqPM5bf8jQJzGaBoHTnr9fakacpdc7xh52zijgxQ5HHInd29P96/7XQxv76fjt/2vw8P7004+7WI8vDztT4d3/drJ553cPR5P+6+n44+Xh/Pfr/cDOb6+H3+OHX6f1zFJHYti+HP+IXdK8d8vX87458PLAh+oJIsX6hXhQzD41Kgzwvdo8ULSt/GRqsMzlbaNT1TZ4iM1cJ9M0iy+UgD+KSTOP4Fa3sZXf/9ciQXhm8UXoQbsrZSzwddAGeA71eLxpWzjmSnaA0qnCAKCE0WxCwpVYDFXSjZES4UhwRphzmYmDmCBGu0WFEoJBJ1GdTcLGs+42lpQbBi1TgGdoF6yCzrPM68vaDNtLydUmAiiebuyQcBLS6diT6hCCaVaJrY2lEwBnJCUemxyKhllYHSOM3IuCwoxyLacKbkFiQSlvzrRhsbgO5D/48bBn9AQYfD0ycKGAqJVE77YE4qGIzBa8yt1vyCChyuNqrOhkYAraX7l7o1mxEoaGpYmlVYLor1ObElAwzGCh2srLw1qAza0VQIpLSBm7Rr99uE4wNLQm6eZMIvvFt5laIDp09UjxeOBixSfo8NHdH91YHJ4VBoU3+0TaK0A2Tzw1t4IOfIavt3AW3oRmGh9VRaUlPH+WRy+YHtjdXgkjRQfnHbBAdp8LU+QTRWfvb0B75+8PxPyp5KI3T/OirKJt/WDqQGOGPfpDo/KvuKL9X+YCbGZj+zwjOOB/f4Bx5srTro/zsfV/ROOt5adf27wSa8OX0E8cFiJ/UgZEVz3Qk1mhGwa4BPgBkEUj8/Y4I/h09ShFwddxO31GtNnglwclKBeack/sSRY61vwulH7J5Q0qnSdfh+iCji1Ru+kW/KjTy29kIECrqR6xWkuFSSokJU0hetiAapk5RKXix4EirTg9YpuUZHQrP7hVBii5FFl2oJfgBSR6lCx1btgutNGlJ1b03zK63K8TPpf9ILIrUn503ppyDZwggazYyRtWlAvqBrOtRQdtxSjZNvQGKSDFrD30oLWttpN19v1SgE3tM5NPU7m31oQxLsJVX4uq66/wykNqxdtuCovIOrj6FNOT0D9qWrj6jrgMCN+YxDB9oAW52hla9DhfCSwZ8lTKy72r8CA5PdXg9H9xQ+ylDgR6yUvFpSSAniyNedhNSKrwZS2hYDBohfvY5AF9mc/1sk8X3DjPiF9DO/E+GiTgT/FD8qUkpG6u5TJRc+L/CNeXCtfo/gUPz0Z7wXtTasy2yDe5YuWAzw4bdXjIfWuSibDwWb0xDv2B3j2YlPxkBT94FT9g7onprzyJ9JqHx2M38brx/8p/OPh+fk8xF/+30/t9afzxF8+/wU=);lineShape=1;strokeColor=default;sketch=1;hachureGap=4;jiggle=2;curveFitting=1;fontFamily=Architects Daughter;fontSource=https%3A%2F%2Ffonts.googleapis.com%2Fcss%3Ffamily%3DArchitects%2BDaughter;" vertex="1" parent="1">
          <mxGeometry x="57.9063566243978" y="-1083.5378748109927" width="161.10625279975147" height="53.8628793113553" as="geometry" />
        </mxCell>
        <mxCell id="Uzw1EFgtotHhk8JcJdkp-2" value="" style="shape=stencil(hVbLcsIwDPyaXDW25eeZ0v9ghlAypcAAff19lWZCI5Nsb8ZItla7q7jh1XW/ObeNM9fb5fTafnbb277hp8a57rhvL91NVg2vG17tTpf25XJ6P26H3+dNH9mv3k4f/QlfQ56jEPskZ76HjejJ59+d5yH+0B0n8YaMUfE+U3bL8Y6iPp+ZbFqOt4ZcUAm2kAUFOUulqIRMbJbjOVL0+gKK4PwgCJKKlxYAwDGTtxoxbGh25HRHraUEABShTAOWGxAFJVOoKpIdUFIpxLpFQUSBbvBUdI9ioVgA6EC5Is1RBqATj00fE6QNHAFtiRLrhEQMQHuRgX1IQMqOdZekJGeBtJmCr0EH4AVfx0tXPbhArKNZENosKqhWnujCgXoSOc2BCC8EcH4aRTCRtgeyYEtBk8aQZC8V6Qvu42nem3Kc5lishgAnKhpxxl4utTVleEHjJDI6QcajBxXNJwAOxMsl64EtZmU0gB9GfIiwS1KTrXQqOgK0FTvKfkxImZIHfeXamzmNO0vjona/H906rwxxogbdT000X0z94Zw0bl7cmSI/XAHc4O4DawIC+V/85nPdpgQSyujGCQ8ZgOZ6avcfOwD5/8eFLP5eJrvucBgeNtP/65eMbA2vIF7/AA==);lineShape=1;strokeColor=default;sketch=1;hachureGap=4;jiggle=2;curveFitting=1;fontFamily=Architects Daughter;fontSource=https%3A%2F%2Ffonts.googleapis.com%2Fcss%3Ffamily%3DArchitects%2BDaughter;" vertex="1" parent="1">
          <mxGeometry x="627.0539481109695" y="-1026.7385219601676" width="3.787459573877868" height="3.8487140926275742" as="geometry" />
        </mxCell>
        <mxCell id="Uzw1EFgtotHhk8JcJdkp-3" value="" style="shape=stencil(lVbbchoxDP2afT1jWb7Iz2n6H5kJKUwpZAi9/X21paYrwyrt22J0LB1djjzxw9v26XUzxfB2Ph0/b77vns/biT9MMe4O281pd9aviR8nfng5njafTsevh+fL79en2XL++nL8Nt/w44KTApYZFcPPPycJ1H6ffLwA9rvDAlAipFlABck6IBFCMoAWkcM6gArIAigEBA9BSMG6aCBeB9R+3dWeUR0OPN6vScrO/QHN5qhGsGs/xJMFyYknIGdjn1KP8K69JtwWmQnZKXKGVGMfqbfJ/QIoAeuAEiQ5gIRqPVBEKQ6gIVnKlBGyQ5lReORQHc6xjKQ5gjwPArEe0jshNTDZMrf3PERLWvuoOVnSwg1pldyn7z4g9jm5TkJyJ4cq6s2oxeoArhEvAM3xIGA7O60gOPapT8pCj5pTZ0Kx6lJLP1mZNbLxF3b1LiDaBKWGEL14qq0x5965K3yLtZ8z4NwvKDYe1dfsTRp3/V+MpngVvuZjCfDUVBNiu1Sb1Imo0Cin1HvkPuPc90u399eHyLjSVL9p3V73F9k5ToiefUKzfBuqZ1/BQ8l0xToEmqDZCmhGm9PTOoIDY2266jVpuFlRKnbiFG2WBesiZ1d/lbVYDyW5QtHyqPCqjtUD3DxdqqA6HETrZLVCYp+++4D/fU39A0A//j7eXnb7/eXtt/x/fOzp0eWhyI+/AA==);lineShape=1;strokeColor=default;sketch=1;hachureGap=4;jiggle=2;curveFitting=1;fontFamily=Architects Daughter;fontSource=https%3A%2F%2Ffonts.googleapis.com%2Fcss%3Ffamily%3DArchitects%2BDaughter;" vertex="1" parent="1">
          <mxGeometry x="697.817604059469" y="-890.3076267140954" width="13.690816358415304" height="4.58896576403049" as="geometry" />
        </mxCell>
        <mxCell id="Uzw1EFgtotHhk8JcJdkp-4" value="" style="shape=stencil(7VjLThxBDPyauVrutvt1JuQ/kFjCKoRFC+Tx9/Fk1cO2d6YQx0jchsG17Ue57OlJrp7vb552U+Tnl+Ph++7X/vblfpIvU4z7x/vdcf9iT5NcT3J1dzjuvh0Pr4+3p7+fbmbL+enH4ef8C79PuEaxzqDIf04vYqEU/735erJ/2D+e2Ucm4RHQSHkbIImaA1TKZRuQmNS5pCRpG5CFmgyAUCjXbUBRSg7AVHQbUIV4dMmOxPYxO3vNwD5RcA7BAGrxRWBKAdg3yursGdSsReLg7EMD9kqxOP8ZlLhlim0sMSX0+4XamE+lDPLZGoWxXoUCYJDZ19H/1im1ah94yd8ScKQKEHZCGiMIiTIKuVJyKa0k6AQL0fUZUwaksCLrCBChilgaSMYYklABgCKeFjlTAUFn7drTAZUhICVKYwzN0grkyzzOYwwzt0CrpeBbzUqpwCVd1O1NXHC3aSbWiyMAXVU6dc6DAKXWcMHv1CVwHWBpd4DYCbwF0NEl0xzBLjlJrbmL4DrA6Dq6ZCorQIRVuyYugEARATI1F4MVDtXBZDWNMtP6sFsnU6T4MX4rqYshdilfB2Sv3DZbUNAGqGMMtcK0zoBxVrUAdcZ6tDkuKZQ+C1pcP5S+pWyl1Y1PayBGPWpqnDygoUpb0M0DCgJY4cZKz4L+Dr2dzmS4V80N5LIkcIhetmhjfMLCzYUaNmOQCAS/iFVbDLAItPgRgO2GPLqUja2IS6WPtLOZhbJkI6iNaVUsAoU9l2x5ELR9XnAp5L7xfm6T0+c2Of2X26Stgg5g2+Q7rB57X7irwVajtZFGUmFn2hxxg0etM0AMUogdMVqX8fWPYVOX4AEoBss6iwdE0DvFM0NLb471mHuAi33uO8p6yF09z1KEtttwoY74m4G9/M6rKLSP7pukwV6+6ByrIcone2kRpYoK5qVLsLbErgxnpEb7mvgN0rSC0arjt4RYu4cb/JGxyewNmjUfvQ56394e3u6e7vYPD6erq/P/+7sqe3W655Lrvw==);lineShape=1;strokeColor=default;sketch=1;hachureGap=4;jiggle=2;curveFitting=1;fontFamily=Architects Daughter;fontSource=https%3A%2F%2Ffonts.googleapis.com%2Fcss%3Ffamily%3DArchitects%2BDaughter;" vertex="1" parent="1">
          <mxGeometry x="125.44190913938075" y="-1077.1761282878724" width="27.08298090428741" height="22.116946742011464" as="geometry" />
        </mxCell>
        <mxCell id="Uzw1EFgtotHhk8JcJdkp-5" value="" style="shape=stencil(7VjLbttADPwaX4l9c3lO0/8IEKcx6tqBk/Tx96VqrCNS1jSHXlr0Jssc7ZIcDrm7yTfPj3dP200Kzy+n4+ftt939y+Mmf9iktDs8bk+7F33a5NtNvnk4nrafTsfXw/3599PdZDk9fTl+nb7w/YxLgYJMqBR+nN80plJ+vfl4Bux3hxkgFqrVAJhJOgBEyhbQK4W2DuiUorGXTKWu2+vXrH1vxAlsKFMM3oOMPBCqdgWOxGEdkNi70ApJXAfkSp0NoOon8jqgFOrFAIrAoNbs01YCMYhqi9SSAeSEAZ1aNwDNTOF1ACuTLPU00AkkjsX7oGQMIEqdR0wueYB5k0TZ+hyHT2v2HJx9ALWjRGbrQKAM9i+a5e7sA9p/G+GY2aP9M0VvXwGJpHv7SAUkTO3F+puoof3LWP5CUhxPIbH5qtQARWO4xO9SyZTxAt1pEU6AeK2LYXB2LULNASIJWoE9hWIiQWpaKTuOdljHPfs61rKMIMs9UeDFCggQqDkaMVXA06nwXV2qYILC4e7lUUUfMUMBjX0eEgirbinYFfrg4pp9d312SP71GEWK9vsVSoUmofnSKYgWhZI4e1QJfdmhYCX0ZQukjPaj0iIunglQQu3Zfj9i7VJAc90mDXVa3ZGNqJIOtSd1OToOMS6c6tVFC+d3SXOFI1Dg+0VvZysISnMc35sBkARPvHZ61HDXFz+uaRMvYDa6UpoJjjpT8dvECeziy7GCx7y3Kl+WSZUYJ8F1zTI8+iP2/6eQf2EKQQn4+6cQBWRXxBkeMyWOI9lMTBkpV/YNNuUxZqzKhM3C1HJQC9c6s7zLSgx0Iqr+gFPi6HLXD2nsz1x6qkNHX/3b9ajaMSD4LelxH5FVD32OS9xgj9JiERsl7VoRna67d1pUj0CUlDnVckl0FgGJaz7Rswq8CgiD/JcFcBNc1HNvsN40IO4+gcf0dp151OwsyFghtRidYFQZQV4Nqc1yxZPI1LMXFxYVJa1SEQ8IoKvpGOGyXBucsCN7EdMVItLhheopgJHT2hiyjxK8Bwp+XqsCfVCAm2pbhGPzRFVLjZbgTdMEWFxNoWlHAa48W4Oq99bt33mj+I4rSH14u8B82O335/vP+f/+wlNfnS9L8+1P);lineShape=1;strokeColor=default;sketch=1;hachureGap=4;jiggle=2;curveFitting=1;fontFamily=Architects Daughter;fontSource=https%3A%2F%2Ffonts.googleapis.com%2Fcss%3Ffamily%3DArchitects%2BDaughter;" vertex="1" parent="1">
          <mxGeometry x="115.06569395961571" y="-1054.6918668392034" width="46.45225250423778" height="31.648016264824832" as="geometry" />
        </mxCell>
        <mxCell id="Uzw1EFgtotHhk8JcJdkp-6" value="" style="shape=stencil(nVjbUttADP2avGpWe9PqmdL/YIZQMqWECaGXv6/csMYrm1Pat8TWsVbS0W136er5/uZpv4vh+Xw6ft3/ONye73fp0y7Gw+P9/nQ4269dut6lq7vjaf/ldHx5vL38f7qZJKdf347fpy/8vOBioBAmVAy/Xp8wcfrz5PMF8HB4XABYSeoIKNQUA3QApECJMaCNgEwqEFBGG3IgRhoaaR4BhUqDgCQDoATSAgHBAQpJhjak0UuVoZcqiXj5BuRz8ibYJ5AJRUl5ALBpAE6qQjyGoVCq78tL7a+7/MzFTXm112PUIjFwqZrFo3wjQd/PFEbecaIGPGSA10yZDxSghyYNDqAwBgZwQTNmV5AKWryPSqSEjC79ADOPEmkEgNpfd4BkKggg1FwYzK0I0KiNPFKGNnBYFTFTWpCbViXGlKJs01XFmJ6Aqvd2gBlgVQrUVQtEYw+AZJrJOdM1/CWBuBfqj6oIPcGWRoDQtbbhVwUamnj6GSACvxpA3JHM0yCF7EjsjlQh/ZpSZA9g7CUZs9piWRE34oobhTLKCMuw6gEJHalSXmlADc68ziujA0oI7Sm5AFQMUOcloYSMVl9odG6q7wHiinyCjQ6rHE1IQ+1hWgAERdoCt0pqWDZiLxJLAGpy1g+aB1TQdY3ePh8U0ntKoOrdiirZZoo2UJf+BxBd4LiPgNuA2tNl7kHWilERKH6WsS4nCJCojoGrGc6gLW506oziECiPGmwWaGi+ahuDNxqYZDXATbsAsEFKr6RzC8oUkZfsxGPgBBY+c3ocTbCRDOWPDa3ZbSfap8BNgM2QdbS52ggF+knoM+QsbykLFKxGE1sEsHweG6JtGgJiYHuI230KrGFMcfx+UtihuZNyuYyh3arPpwvSRbT4+MHKtgZkryWJ4yjexGL/2kKegXzqA87MOKMU2qv8HmarnwD/V39+k49ofvF9lqVH/J1h2K8MBhC00Ee/PU8AtNvmTuDlkUAh4up322mfRhrEk2La2JHR6ivXdCeArwzaikYJeOmf70k+ALAfb9cyd4eHh8utzvK9v8axR5croHT9Gw==);lineShape=1;strokeColor=default;sketch=1;hachureGap=4;jiggle=2;curveFitting=1;fontFamily=Architects Daughter;fontSource=https%3A%2F%2Ffonts.googleapis.com%2Fcss%3Ffamily%3DArchitects%2BDaughter;" vertex="1" parent="1">
          <mxGeometry x="127.56667598135539" y="-1062.5115892023591" width="23.75053421499649" height="62.921936153909996" as="geometry" />
        </mxCell>
        <mxCell id="Uzw1EFgtotHhk8JcJdkp-7" value="" style="shape=stencil(rVfbbtswDP0avxKSqBufu+4/CjRdgmVJkaa7/P1oeHIsNjrDgAF5cGwe8XZ40cQPb/un190U3Nv1cv66+3F4vu4n/jSFcDjtd5fDVZ8mfpz44eV82X25nN9Pz8v/16dZcn76dv4+n/BzwflE3s2o4H79eUPzP/19XuSPh9NGPgSS2slHynUsz46iOT9QKgAQSbgDqMooAFAphQ6gR3gAiJ6S9C6oTmDS/Dl2gJTIOQCoJL4DZCbJY0BiyqUDFDUSAaQZsAIKVT8G5Eipz1sNVOIYUBJx70MV8kCDnsepA0iAUaqJggEo9xCgWh/EUU1jwM2ADQBlWrQaojUJsVUKZbFOo8SJEPeZFoY+eOc+OLGmZqTCFIRkKqBG1QkxTlSYajUgmcwpN3AiYrEARFflmusBmziM2FS8VVFAJ5v5z9ZrAWGq2sqM11pzgBxFbG/VRCTgdalUDf200TDUkE1FcGtu931QOhsNWragDdTYxsGmIiIKa6FoNLjWDe9zw7Ugbqsa0TU2rm1MYmCSRt2MFHUaTYiZCMGGNQLyKdVMw1cjKzJppf+GGow0VMoGsLaekdOWrSu7/g9AZ1DI1mm0O+hYNPWgRVtBs4zB5kFr0IN60F3A9yYVpoAAOpd7k3JqR4z2GeOD7gKoa4RsG35MjY6jDcuMRU6Q3r60z+vGpBWCAIGy2ckSJh85wz3YvINtGRnSwpPrxRPc9xwFE0/KgKUfpidTAZNKT++7V4DT2bW17ibuYGR834h8K6H7ZLPd3VFGSyElNuKI+8UOcQdtlxbmjTjgjPd2pVVrwPGe7daiziLW/OPF5e/y+nC7Jb0cjsflkrX9bm9V+mq5kfHjbw==);lineShape=1;strokeColor=default;sketch=1;hachureGap=4;jiggle=2;curveFitting=1;fontFamily=Architects Daughter;fontSource=https%3A%2F%2Ffonts.googleapis.com%2Fcss%3Ffamily%3DArchitects%2BDaughter;" vertex="1" parent="1">
          <mxGeometry x="184.62586166910717" y="-1077.8866245639165" width="20.037489572328923" height="46.34767606457592" as="geometry" />
        </mxCell>
        <mxCell id="Uzw1EFgtotHhk8JcJdkp-8" value="" style="shape=stencil(7VzJklQ3EPyauSqk0n7G+D8cYTATxkAA3v7eKQ/v0crqlxOc7AO3oekcLbVlLZqH/OLTm58+vHqw+Onzx/e/vvrz8efPbx7yDw9mj+/evPr4+Bk/PeSXD/nF6/cfX/3y8f3v735++veHn9Y310+/vf9j/Ya/nnA2wrCFsvj3l09KiOXfT358Arx9fHcLmKGWHZCD1WtAtpDHDrBQpgBgA5O3VMWWAKh9B/RQmgSUfYWcwkwSYPst4ZOptpRD3w+dR6hRAixtgIJbMnmtjQAtlCwBcQfUGLISXAql7gCtGjmGGXdA11uKwdoGaDE0cWgoX94F13Jo4gxQb9u1tbVQxZashU4rTKneVkPaVaOnMISkof1zX6FDHYXyGe5kv6XewhBySCMkWmGE2QWghrYDRgxdrZBD2a91wICE4HCHtIAdh7r7/Xro/u2GlK6G0fjEQ/x+rJ75Stu4/n483MP5fTuc1MX34246rYcu1A7f3y0Hel3EeRN/v05tmsF2dwRT7kJJi7Nk3Jj4PhRy98DwLUXc5wxp308Z0spSOvTxBNQwFAAxYdegkg+ruA84XdUJgHvUZln2O8r9uOX7gBzyfkkIIkkBmos6KSTlWgarKT6JYgX8vkyAGkyHqUIAC1WF2spnwL1JutCZkCQolwoi89DME1CO4Htft2NIlQGKLgBAlCdpwQFALh6AKHSpuFALDzvVCoklvVZQALCwzICsPIAdDuIG0ISLKS6uIaxEEXWWQQ4GVA0gugDVSCLqLEBmQHtmS3ToLr0GDk2BBwAV2ACotKVxxIqrLRWiz+lgflcAYjDwtlKXoMz7GWBSVW2pHLHydJUAqFuq7CoRfqTgBucMtUrfivDEK2QZcPH7OkUsk1y1joNz3QCUE6jnrd+cQcXERZZ3wWHNLiSN3zeINUR9hsLq3eAWFA0zpp6tHAz8PiAxsVrERwNs3xKYlUqUAIhE3apMJ8FEiJssbqhWANUk8mmH47kCVGK3J6G+ApCkx5BsZgF25Zvp4DeXgP2WZpWE0m9pdi2HyBR9Iu1Q2hrZGQOgODecyiTA1GHXlSYAqBoQOwNU2gC/RJWGFE/qfoWgTABLTOUr++F7b/ek4m7ncsmcslxSGkf2da/CbazCwk42luSU+26cdQOg0hMAiApMXTlYW6JDwzGpLSGO05aitKCVkOxbglFLWjkP9T8BWcesyJWDcRZQrlxfJl/5TIAoXPKBr1QJBEJQpDzaZGRHwDFyrulwVfcBmd3GKpeIW2rNbalIowYgE2BKSbfKvhL+PgmWiBhIbmOUI8bcBxg7ptH1tSZWDWircn2QA0XFmWVehhVIvRFRTFgcDk31xjEP3ngXAO3PuyPLQzoybCBTmqXJN0x+EBUIU+xotsNFnDvSRavq7E1GuHXl5FhlbMCB476flGTyAJaQXeaqQihc1vTpidDUUVjxTBeJl4+j2rtJNzmqK9ablBoOTTTAiqwgTON8xtpRebnSI8orc5S58SysGNlkO2C6VDc3SSmhGsXlZCogwhiJIRaTaSI8EDliZGkqYxqNvR5CpPJJkDQdepF9JenmUqwiy9DD8TdkTKYkHQ8x3SRA3+aTEC268hkuRjfEaCXpyGliT/LQi7dQyC0yAZouNoA2qNgwpqumVxlyZ+K8smctB9e86lEmojAgknSbMsUCgGoUq48j1HvZtANEBajM9wBQ5Gq6kkObkiuteOVuSZUR51ndugFI5YPF0Qq6uARAd40QVTtdZyD1zloO1aXrWdZ/p6sw97NbeyVpCtMAZLWCq6gBoAjicveVzyBt2pzgstYl11SHHFS3Yrr6b09acOZuSfdmARiuc6rSGdwSxTgApBMonMMtE9WA4SxO5aHQpeq3pM7QWNIAqOISAOy9o6yzTNeQhuBUprsAtIIuVK4tOZtWJYpvB/geeTtEeaUazOx1zW7xJddgVro03NwLmKw6A9jMGLyCygYAKCSHKYPiIutkcVWmleBLHEV1fxAAotJIllVVEABmMyZ7CaOwTVddjMIlRlclV45suJZlNVlAGL513I9ruNpS388AZqw8Hw7NsztZJn6LSlNqPGWVHGS9E6DJys9ixgTQ/UEA2m4POcoSxcofaA5s6DyuuF6zLoJAcOTurUpJw76InFjSW0rcW0N6rNzMyK5PW+RkzTinFG5SfMXI4Jd4skZa6EofdrnVwzlfRmlSDDkPBdfN3XVZ9Vldg93r6fr4Tf386wLKw6xaNR9YhsPOSjGPVuElO6Qq1HjONqnIWqKssSAh5N6MSXbYCnfWp57SaMZp7mxyxKxF1xLoujHo2xpduu3auCgzq5xvRBho7pbUdMBagW4pys567Vy6giizKtgPtgX4NClpPzamezktuYje5ZwZoivVJwBQta51aFpBu+1aObeH11QjlzVzlRVO0MShEb9JlxCMpKQTn2Fl+2qF783NL4Dvzc07AC/q/7y5ac7fqwLFOgOJOklPBgDlueAdch60HQZ2Y9TfJoeVLukViOKuKqXSpeZyxCrrPgBQVOymZ+b6neRekZ+l3i6/UuMyX6deT0CW5WUYNRHQptt28JXJlcjl9Etmm0ZgVfZQy52qvVzBDwtnWQetrui4PlGHdjS96rbXGioafEtqVqsMHvlZA9haW0mXFkCN8RUnB50uFeMCxeqeKK9hrqEzj3LwfUDiouNKW9WgYHSvYOIRuq8ApK1mR4/0EvB9lvf7LO/Flv5vs7zRCW7KakDu/IrBzir7fUDlMo7piZ/s5nGsSyawHnm5Zrl6GrKeYNFjuyxbd6uCQd31JhsJ6zXPbnHLLai3HpOLv+WZ5zadnfEiRMK3psIjc0XnNMm/zjNdaAnTPc5TlK/zrAnCiRpZqK7xHY8V7+s2M/um23auUNyaLHZX18TWz3MaM6ue5Xk7z1KvF2Hi/lN0TRCdBiTfRWxyR/Cg/FBQl0zSYCeMM6vJN3PvL3vSb56Mi29NjzhZ5oLGErMCFGYxrchhBSgGRc9m0vjt5I43TEwRK+v8busZRrzG0MiWs77W4WZxpoxt69X2rhrlHC64D5jcyAHreAZAk/+IRdIJO4e0Xlmrh16R48KqzKpH2MkNgjX9KNQ3ELp+Ux258/N8MMxuBeXFbHKP76uyXAGK29JQyuc6PwBIbR1MDpfC64DOlKFJUrIYgBOckgMAvvMjlW+4kb8qo6EnJaZHeAEgd78imD7DN/5hhecB+OHr33F4/fj27dOfgbj9f/67D/jo6W9G5Jf/AA==);lineShape=1;strokeColor=default;sketch=1;hachureGap=4;jiggle=2;curveFitting=1;fontFamily=Architects Daughter;fontSource=https%3A%2F%2Ffonts.googleapis.com%2Fcss%3Ffamily%3DArchitects%2BDaughter;" vertex="1" parent="1">
          <mxGeometry x="172.55509600138112" y="-1083.8647226619137" width="79.3761938309119" height="67.04316647083292" as="geometry" />
        </mxCell>
        <mxCell id="Uzw1EFgtotHhk8JcJdkp-9" value="" style="shape=stencil(7VhJbttAEHwNr43Zl7Pj/MOA5UiIIhmysv0+xRBDcZpWCQIC+JIbTVfP9FJd3eLgH962T6+bwZm38+n4dfNz93zeDv7T4NzusN2cdmc8Df5x8A8vx9Pmy+n4/fA8/f36NCLHp2/HH+MJvya7HCXH0cqZ39ObIiH8ffF5wu93hyW+SCwdPoqr1/HFSKgd3kk1BG+luA6PF4ngvSSNN+x8xJs6vBFfCL6IDQpvSH6q0f4Y6k/17bgL3kWCR7qzwmeS/5rFFpWfSOKtRVLPB8fxVZLt8F6yu463Zs5HMwhSWcC1xdfwSSwLuOrzs3hCoLomEBxijHYSegbBo0JCzqsbfBRrrxskL7HPaQi0KaOX0N8Qg1gSNM5zPetwZyJlhseqLRGVITFARnLPO3R2IFkCb1wfNFovMiYlXQdw3ZMs2dg8ng1u3OCk9L0GcgUStDVNCxcGlRjkdv8Sn0ndmhYu8Kw70btVR8zUwkj1OqWJ+INe7otck3jSzKbxfsaj1whPoeUqP77J05V4s/IfGSD4qMW32kbbK/XKVuODp4QIRRtQyq3GASIwJAKQ2q5CpilNEr2uAdMKiwnSCypm0I3GzKptEp35iCEqg8Jd8npIoQ8sy5LVU/AyVt4X+aa381AwfI7HNvWWF5AQoHYrhwxxCDwzOkWGdqZb1aAQ/1dTGUVmco01Z8Ui7s99+KKVFIubZ/kJutOwqXpyATKqKpagvWxAoaBqZhq6WfjSODlPZdN67311T1reg6ExRORELV+mrWPvbxaYaH0MkEzLdxevtiPc8MH7vlX4j973rcb/3/f/8b7PHbpv38dxShmlkJbBOFVtP66FrMKQ6j6jGFdsFJSVsEDMmE6UrKVrXG0ZqaNuShgwYUGX2bUBu8G0oi4M2G8cqHO1q6AJsXPWdUNaC8lSjlrrxsKxG1a/D7A2MGrkoNfBURxJWvO87V64xzapuz/O3MTj4fIl6GW3308fkpb/11+O8Gr66uQf/wA=);lineShape=1;strokeColor=default;sketch=1;hachureGap=4;jiggle=2;curveFitting=1;fontFamily=Architects Daughter;fontSource=https%3A%2F%2Ffonts.googleapis.com%2Fcss%3Ffamily%3DArchitects%2BDaughter;" vertex="1" parent="1">
          <mxGeometry x="257.26841415918307" y="-1081.02757997487" width="15.087634909812174" height="30.059176304616344" as="geometry" />
        </mxCell>
        <mxCell id="Uzw1EFgtotHhk8JcJdkp-10" value="" style="shape=stencil(7VnLUhwxDPyavaps+SHrTJL/oIolbIWwFJDX30eTLQ9jzU5TJNzCDWbdY0lutSTPLl083lze73ccHp8ejl/2Pw5XTze79GHHfLi72T8cnuyvXfq4SxfXx4f954fjt7ur0//3l9PK6a+vx+/TG36ecEraJhCHX6cHTEn/PPh0Wn57uFssj4XKuD5GimkbwJFCHgFKSQCgkvBokVDlbUBiqmUAJDMyAkCjVgdAZlLgdC6URx+yhQ04XZhYBkCpFBsAKPEY1hqp5W1ArcSjD/akgbCKuTiGVSJxAAClMJokmQSY1BrpaJLYE7CDFuI4ApQK2EEr1TGsLVAAB6dCWjwAHZyufGhMAQGUqgMkSoCtMZjJYUTkzvitLbxNRqYKAcV5Lf3JlteiI8BSBGSQxdXlaNOeU1snl0enNfSsPQ/Inq6KdUYt7MUDGCSE/eycticB+JADZWdSwUct1BygwoQw8o30toMJwAULavPr0fsLxdX70fpEGv16pMRMUl9jv52As1+IUfHxpcTimQBNAxXnb4GSZwfs/M0UgL/r9zM1wNHY37ZgHMr8uIpngAps8U8+KxUkWaLW/HpU/I0/xa+PIP5Ts5A9ICMCSd9/oVwKADl1AizkV1ESW8o2D6io9ouv/SbXqCJYa+BqvwHQKRRTQmeS0Rr4UCIVp74NnoMBxBE7QGIbgEcmGVMb6l8CRUftRAWkWm7950WuCfAhV1/UJvVFB5cpVw/IiBpMuXiTIPnmbFw43QAgae9LF4KBatTUqTqFCd3ILYCTbKMGaqnMpOoAFWqMOa2ufTFRRQBedUiZIj44nw/pJWqIeEADUTLyVfUmFSR8wXfb5jTawRLI65LAfJhSdKXdCWVcXNE79hliywefQKl3oltCFlyDlKEumVTyqkFiJJWykhkMsGnVV1DFHUbxs+Gi/36rnupV6997qr/oqYC8/G89lazEscFBKtY+yS2USIBOWEVIK4GH4+bbjPHApPcx/rmGvI/x/zjGT+178E6jHYTP9CMF0HW6mxs1wxIiIw2wlBtFWDIcSgr3GjDf/im8X8zZdzw1QRlOq7Gn1F7dzwNCd3G+IzXygcLAq3OYWkukZNKH6/medy6O5wHsd7A9UU9VvQsmnkiXrHKMXBU43QZPC6u0IBVWAjNf32wtH41P/WZ/qy77e3+U+bFL1Rwa2P+yvzu2nEQ38n0g6MvnruE8mykntxxlfPElHHeA4uMeIPGbbwADHFbUuxrhQPfKzzMvLrc/nr8EXR9ub08fkpa/+y9H9uj01Sl9/A0=);lineShape=1;strokeColor=default;sketch=1;hachureGap=4;jiggle=2;curveFitting=1;fontFamily=Architects Daughter;fontSource=https%3A%2F%2Ffonts.googleapis.com%2Fcss%3Ffamily%3DArchitects%2BDaughter;" vertex="1" parent="1">
          <mxGeometry x="269.1447845019734" y="-1082.1661467553813" width="24.537385057427667" height="26.834775969890604" as="geometry" />
        </mxCell>
        <mxCell id="Uzw1EFgtotHhk8JcJdkp-11" value="" style="shape=stencil(7VrJctw2FPyauaKw4+HsOP/hKsvRVBTJJSuJ/fd5yAgU2W/YzJySquimpZt4+wLylD58u//09e4U/beX56df7/48f365P6WfTjGeH+/vns8v+tMpfTylD1+enu9+eX76/fHz5fevnwZy/PTb0x/jCd8vPO9iGKTof1z+EKLz8vdffr7gH86PG3wvW3xwve7jg2se8ZL28dEVg69Enuh6R3wh+ORSNHgiT3KSb5HH4qNLnuGrsX8l9kwuyhafnG/MPtIQXyLDZ4N/tfAOPoA9s8tE/iW6VvgSKN48v2QWb6/RuMYXive34dG/mcaPxn83eBIPii/GnlSeZuyTiL9sPiqeyl+N/PGmfFc819fIH7g9jX9ZvVL8Np7FFR7O23TU+kiizUS/d4EWq5ARTmthaABnqsZp6BWcyh4LwmkiJvN04leFm6dTeDZP51XKPJ2qmuUmQxYMAu6m1wKwgtMQKxgELMSCdw06BE1wK051QvA5zH4w8TG7RtStyeVtSchC7dPEyfYEfQSrCT3MkjQJLTshRadXV7cniHeVGLXLHEIWQpqF+jqhoxekuMZO6DiYSJu1ZcfPS4YsDJkFYPcIQ+jEEUoQUKK7zJVArfv05R4Bgql7l4nWSkiCBOFKx21RHNHCTwgVCY2f4Lex0ZdSuRdM0OOVIEwkwRTty1i6R0gZCY1lkGDr6NomWQY11wUJbO5QAiqtOcoJBU4otPApAVqIEioL7+Y8iFS50nVKvCKw4WzUGUPozNN1DsMLodF1QAmxI6Eys6qKIJLMKeM6oTjxSKgs+NTqhtBJ+1QCOk6znGVcMY7rvLhmsyV6Pl9otS4gk+5BJDZaNMWVD8pKwJaSadlQQhMkBC4SzL7Ck/rKCWmu77s6RCSwpB4Ec0IjsTHM2gyBmTVNFdcEEq5KCJZAgkkJMRsCmQWUAKPwsBKJ70EwJ/QDwjZah6cPCBEJbBMZSjckRH5CtPnAzQqr1CDwE7zRIR3EkiUwkSLW+6E0PwGa3DArC42rKXpAMPnAiuvQwQbfAcHkg5BSOcxq84F72tth+iBFbyXALeUgHETrTQTtD31L6EsD2GtBUCrHZMoadTajQKcpqgS4ennbWvYIkA9KyLzvBnMC66JKyDCHNnr7NWYHM86wTX1MJzC4VnrfOuYfQQIrZPrvBJ4u3Kx13hitCImPZHBHODzDJ11vCJWNlQ1blhIOZml0HG/sY+o0KwqNpYbjT0903x2hBp6OM1h2l6CIhHiwZsHgerD5iRnvA20oVzY/T4vxmJwbEjKpfKNGQAfqRzs+eFoJdLfscw5e3SIcbODVEA7uKZDQaBcdOkCPK3zNEqNDnj1ptwjA3Oq5WYMLW5FaoUo3wXW3Jvqio5oxNAu9nMkBXwXFwl8FxTl/LTrQXTQsd2hvN48sMP5rd+cV4O935xP+f7k7VzfBnDmvMv5ZRL6/ywT8+7vMf/NdZsQeFNJBPMOLmsBHMrMpjm8RSHwmvGRWPLNnwju48a0JaSgJrzYHnuZjMfIc2F8Qz14lBNxzw1Icr+I9lv1hTxL/HieAQ3ww8jN/eVPfIl0zPE7oYbHwHt7Iz+rh0jTX9qT6emNPdkF0Fc/lMfZh7cXj1eSINyoP5i+PT8Wb+A8k32//lusIrz+8fTj25fzwcPnubP1//NBM/3T5SC19/As=);lineShape=1;strokeColor=default;sketch=1;hachureGap=4;jiggle=2;curveFitting=1;fontFamily=Architects Daughter;fontSource=https%3A%2F%2Ffonts.googleapis.com%2Fcss%3Ffamily%3DArchitects%2BDaughter;" vertex="1" parent="1">
          <mxGeometry x="217.62357520149067" y="-1113.5337590820534" width="425.02989328312003" height="375.01963215211316" as="geometry" />
        </mxCell>
        <mxCell id="Uzw1EFgtotHhk8JcJdkp-12" value="" style="shape=stencil(lVjbcloxDPwaXjW25Otzmv5HZkIKUwoZQnr5++qUMSAdzqZ5OzFeW5fVSs5KHt42T6/rFYe30/Hwff1r+3zarOTLinm736yP25N+reRxJQ8vh+P62/Hwvn8+//36NO2cvn4cfk4n/D7jUidOE4rDn/NKF6r8b+XrGbDb7m8AOVGIFhApyTKgROJqAK2OlfuA4m9oQhEAaqDUDKA2SgUA0rD4AhAqHZjUqVofdCUDp3OmwBbA1IAPUikXA9AjkEmxUQsGkBoJuCEGitbplImBD+zzljTRYXl/oGazIIUqyEKgYB0QppiAA9Tt+VypIKZSy3a/UMowQMXyLnYKKKKJmq0dXUnIgzorBWoox4m64ynkdRTvch4kWTrfU4ICsiePhF5CShmd3yi7ABFHwDgeP4/9gQRkjMtg/HV/APZIoNzcfmSPaDq9PR3Yo0WcHOUgo6WTdFsCVADhkrpn85VJAB/0fHbCSAHbz9Z+TSDaP+NPh71D48+WP1pzCQA0wc7heEnhfYCKRPCAiGWUu3OBcQlkH9KONSJYlwtWaRmKcC3JgkRLG41T3dE9lyQouwBRASUzMd6XAExAGhVyU5KohDXcwe8H54vM96P4aA/K2flbkUR8cn+azR6accY1JnYyUAp2VMTsRVRTHAFAGVYshT5oG+qiK2PRTg+KQGMebZAkD5os3ZCt01PcPqCFLZuk0gh4oXOs2DxkJSowqWjrtcTOKo5ArJsyw82APNrzwjwxm3B0amxA7nrzw3gtI9L3ATO1aGG0lPtONCr2hpagE409v1uHPUEtdj2n4+ldE+Gafi+wCxbxYe0NjjnTC8RpfIdRyv0OAN2g1Im+7eBRRJ9RblTTKzqyiQf/bwBovFb+1zjzGrBPSyhkH9cKSihV/wTpFUpZulTYDSAidS2zG8rQ/6UbonNaRyQM6M6kBMXy0w/m/wDox/V9/rLd7c7P+9vf/Xtel87/C5DHvw==);lineShape=1;strokeColor=default;sketch=1;hachureGap=4;jiggle=2;curveFitting=1;fontFamily=Architects Daughter;fontSource=https%3A%2F%2Ffonts.googleapis.com%2Fcss%3Ffamily%3DArchitects%2BDaughter;" vertex="1" parent="1">
          <mxGeometry x="312.0568908511091" y="-849.9391512155698" width="16.478380004041842" height="40.80168808545766" as="geometry" />
        </mxCell>
        <mxCell id="Uzw1EFgtotHhk8JcJdkp-13" value="" style="shape=stencil(lVjLctswDPwaXzHgmzyn6X9kJk7jaRpnnPT1913VoSxC8qa92TJgEuDuYsVduHl9vHvZ77y+vp2OX/c/D/dvj7vwaef94flxfzq84dMu3O7CzcPxtP9yOn5/vj9/f7mbIqdP344/pn/4dc5rTbKbsrz+Pj8J4srfB5/P8U+H52V8lqRDfBHNJD6Ib0O8c6KNJKiENCZEaWSFWiT7MaFKISXUKHncEmrWSBKcFJNQJPrrCaVKq2NTnVSWkMWPXQ1ZHOlSCXZLUWkNxdlzi0ESWSE3CSYhSw0koYgbDy42KeTgchI3rpC8BLYlIGdsa8KWSEIqtq1ZJZMaEto61pDnJ9sJKskkgCD1ekLElkxC64DfTgjSDOG8KIE3gGD4UCI96VAkxDEhU8aFKGpWaOJIW4NKG1cApZQUDX69/9+cALSSFXwUN8pYTf1kthO0Y3NOKJ1Smwmu2AQoVSSMc8mCr3kpjiR4yWOXGpSPSaWE8RhapTVXSx+IfyBYBZKjja8M21KzjWf7x2jwNr4QlYQMr/bPmKC93Yv+MJiqxRCGHdv/rLhzfKKCB60w/8+J6SSaerlk+67PC8BVsp/Y8buIj0x/LSkR/z5UtmdOP81FfCMEaF0TFvVm5i2kFdvPTPDpQFjDyCSVAAgJxry0ws3LisG1Y/wKI5PpKISUTfGO9yVj2HjqNmW2RgrQkiNbzb+J8kxGxa8KCJTCZnKgQZFS2ExLHACTrLm6BYWZnVVrcibJZYhYSUSgDmQrvpH+Q0JN/Ae2rq++mGKsn0C00VDMSaahLliDUzmJXe4/zwlKS8YZmBpgn9lgBap1nDMldX+xndDsIIB99qSGsFJS2GfGY7h1I1258tE3T95/9Y3eGv4cKZPh1o0dh32OLKFZ35iqZAINmOU4tjWl/jJ5zY6HsQYYfmWvFM6+nMI+s4kDt17NO0jsgN9OQJfGc4iOmjScazZvapB40iUgx41thX1OZAVg09go2GdHwAe3nke0giFsbsKtG2MBnfKkraC8GZxgOWsrRMWPgxDmlolArSuhp+huznoX6Dbp0eS0xsnpqK5enHeP1z7at+OT9cpK5+BlLF3iHas3W1DwOY4xmVbxbD/VHpjya6Bqiab0RqQ1e6ujFECTrxkx7ahiT28a5taoX/JcmYMrp+ApBS6vPpf4wuP/717tw3h8uFziPRyens53gMvf7aUfHp0vDMPtHw==);lineShape=1;strokeColor=default;sketch=1;hachureGap=4;jiggle=2;curveFitting=1;fontFamily=Architects Daughter;fontSource=https%3A%2F%2Ffonts.googleapis.com%2Fcss%3Ffamily%3DArchitects%2BDaughter;" vertex="1" parent="1">
          <mxGeometry x="614.505896558217" y="-647.5821358528035" width="154.85279326936762" height="213.58171786491965" as="geometry" />
        </mxCell>
        <mxCell id="Uzw1EFgtotHhk8JcJdkp-14" value="" style="shape=stencil(lVfLctswDPwaXTEk+D6n6X9kJk7tqWtnHKdt/j5gNVQFKN60N0XGhlhgsaCmcPeyf3jeTexerpfz992vw+N1P4UvE/PhtN9dDld5msL9FO6ezpfdt8v59fQ4//380CP704/zz/4ffs84zhRiR7F7m9+USpz+vPk6A46H0xrAFFkBaqScAaBtTkgUy21AKJQ0IFeq4TYgSgIG4OEJyVHxCpACJUA6ScZBAWIi7wCgUUkKEKTQIKUcqemUpDOpAUCj5BTAe6oAUBwFfUIlh+KZsuFMuYL4TGwYkANdq9IETcBR9CA+UbbxDrSgOStURzWC+I2KGMeXIcpFRFRAfVqjrCXRoCIk3ijCB2JQ0FYpVQ3I1BCDRFVXVErkEUAUVjSA4aDVQr5pQKAMRFd5mM8/AkqxpHtKYJRLGG61Jg10JHPT3KasANAnU5OWxnmgDAFUnZIoAzS6eDs5ojzQthItA1E2mLTSyGtly+QwaFqglkw8msxaLV837PVj2YVRjpWzgBa3bCcnDr+/NWlsndGDfLxb+K28F03a/yOEAxvOFYpIZjPqosoejQBQM3ntjzHDJdgNW+ta1iLUUbKkZcuhlHKxwuhLCNwtZM2yTkmSREsqtlH1BSBVAlqNbhjcMpviwsDypE3muiO+HAAHnyhp0iu1fHxBGlVfTkgUAOmN9qT1KF6mRQtDTDageSPWFiwGxSB/Lz3SBMQB0YB6HuevboQJnRDHVWIBFCgksfRcLAAtW9822hYAGGj2drP1lEAXpM3mvtZJg5RkC7i4KStKKQ9hrhuHAGVY0Go+kYsJIGrSsotgSnKCSQmbUuegffKz75fPP3jk4e/n0tPheJy/tta/288reTV/moX7dw==);lineShape=1;strokeColor=default;sketch=1;hachureGap=4;jiggle=2;curveFitting=1;fontFamily=Architects Daughter;fontSource=https%3A%2F%2Ffonts.googleapis.com%2Fcss%3Ffamily%3DArchitects%2BDaughter;" vertex="1" parent="1">
          <mxGeometry x="566.9392718723784" y="-465.1251519646837" width="42.58018431825258" height="54.42365724859587" as="geometry" />
        </mxCell>
        <mxCell id="Uzw1EFgtotHhk8JcJdkp-15" value="" style="shape=stencil(rVbLbttADPwaXwkuuc9zmv5HgDi1UTcOHPf196WqSg6JaIoCvckyqR1yhsPd6d3r4eFlvxN+vV7On/ffj4/Xw04/7ESOz4f95Xi1p53e7/Tu6XzZf7qcvz4/zr9fHqbI6enL+dv0hR9zXqKSpyThn/OLXqno7zcf5/jT8flNfKOkLr4NSmU7PhWq/oDaSft2giil5BJKJWGQ0Ek8pKwk4ARN1KpLUKaWtxPyIPEJnZJsxxelXjwiym07vjIVcfGGEPTUOlj895kE4G9tgXuL/9Pjd+N7IU0BD6JsyNLvtaHUB4hvpOxFRBngGYO6Zzitst1KqKGhhTpgYFSqvoI0aKATrCMektWsQBM9x8ERm4wKSDPEvgap1MAJtUUWLAHRVgZlT4PptKIEJfa6mIQKiM6dWvNt7cTAXbIp1btF0uUTWyeEoq0oVIIQe0TGAjCX0qMbCbTHWqh5PDbboEMtR2thYoCnSxQqU0ejw4s73/APgH+Y6vz3K7R3mzQZnjCG3ph4LXDNMHdEo9Zo+BJMRPV/JtgK6151maEhGWsaVJTwbJq/eEg1Q55LiTybHww0amY/YUetq/r9LVgpe+aGaRHUoOZg/gRzTUEncOTBmEF7wdYAex5MXmhRmZhriwkdQJrsJ8oVD5z5T6nxiIomjjQU3bGpUuPYJAGOJ3Et2MhmsEc4DvTQBeFGfBhPW3UM8PAimlV3HV5e/vXC+fd4e7jdbp+Op9N8OX77f7wN26v5Jq33vwA=);lineShape=1;strokeColor=default;sketch=1;hachureGap=4;jiggle=2;curveFitting=1;fontFamily=Architects Daughter;fontSource=https%3A%2F%2Ffonts.googleapis.com%2Fcss%3Ffamily%3DArchitects%2BDaughter;" vertex="1" parent="1">
          <mxGeometry x="626.9427992925844" y="-544.4620917657519" width="21.836579437111595" height="43.19469412235185" as="geometry" />
        </mxCell>
        <mxCell id="Uzw1EFgtotHhk8JcJdkp-16" value="" style="shape=stencil(lVrbcls3DPwavWJ4J/Gcpv+RmTi1p66dcZy2+fssq6EqgEeryZtsc30IYLG4HJ3yh2+Pn74+nFL49v72+ufDP0+f3x9P+bdTSk8vjw9vT+/4dMofT/nDl9e3hz/eXr+/fD7//PXTPDk//fX69/wP/55xmqXliUrhx/k3WXr87xe/n88/P71cnR9FejLnm2i9fb53Cc2cj0EyAwSpxQKKhHQb0JrEaAFdSiOAJDUYQAoyym1AVUnWhlQkkStVXEktoC83HwOyZGt0DqKDAIJ0ByjrkoeAMqQ4ALxEAl2a1GEAJUgJBFAlVgvIkkik8edu3YpLRuLWCbDcq1EqMxo2WHJXcEmJW6Ooe0JbVh1zKSwiXABDtBNAkWG9hH/RGL3V5wP4Wwigl+XEC6BIJoHroIb10kwpYsNoEmzG4ZJKrqTRi8y8JMkHBZmt0V0lkDhAxqq9EoQq8yt1e6XRl1XHRiOuVjWGSiOqMaqkbgCaKPkGVMgGDm5gGderVMslBeE5l6K1QYckcqUWvcyoLkffErJunxBDkMBlI0f/iEbuBN2K3RvRiQoklWxDrZ1qZUqLaxdAXfp8CIh1FZwLIFMyqXSrrRoW4Y/dKsmRlVddGGBdNCDF5D7BFzikW6Tng40y8rkyBy1aXglGZaVh1eMrCUukHKKnCE7ox0qmY0CTYiMA5lZCU7RFaks6ihUD5ORZV1B7iA0lSrJORcHNrFgFLzBIDZqcuurxBQDismKFrsXyAl0GK4d96wEyOhti9IhSNgAV+q09nE8gcUCuO2rA6EBqz5VgXRBK3TRV10oYOpVMBAaVY7hQd+ompGNxbUaSSBKuVemWrrXTjJsNpUvRRFMObi+WfXgm66Ihkq7tboO2Gej7nVsBYG13zFurNFbBOwYkX63AeCobm7ACUBiZ4uZWKDfzElql4QF3nqBbHOgT0ualSrsGuDVXD2DVJF76zStAIPkAaiTdAIwazRfEeSVmdN9a1kpHh9h9bzXdStQYAJfTM3Ac4DpQcIl1SgC4IXGSj1XFtnEJl+RxcB1o4xNZ3Av13RQdbXsC0SWwVZu3QVk+JF/kAKiMS3ELXKfNz0xRdyU4mgUubl5q93QpuzhUacxL2W9ZAGBVEYBdNdhw8suAHCVscytr01EC3dw6+xU+nLiGCdM9i0MH+awNRekYOtJWp/lEhiExWBvQw+mdqXJbyzBdQsM0bE7nRmfv3ry2Zj47oDV364A7myLEoTkbBi1Zc9vVvZdYNwOvq1stgUskp2Fid09oq1m+NSN68gWq3hix3Nha72TcLsZ8nzbr9Fbj2F4TQ5Cb7ntYe8gbU6hrZjpnt3qT+6ATDS7ULPXAXjpHJ79+G4V3Gs2PQKNRYmBydTtH9OJsGkjN9zLKN7OY+5rbZ6S1ST0G6DLxannAbCjVl8S5J2K9ffJDFgB0Hb1tBJUvvFHEmw2cxnXJW6rkljhQQkbuuRxzgSv0Cbt2g3wsDgA0lz6Dzt+4kpMxjL9M93rdEi6tEnZr/nZPgKM7i0P2m6s5brD3CMMb3S77uGNA8W9bWqZXAlvdiwfoXidsRfFwvcwcXdmmpXjdq5luozC6+rKuK2mPAVWiexdyWePfqj9u1i2Rq8bwMpMHneJQMeu21uiErSWvVucCSLQvLtuWPyl/n6N++ZMqHTfqVuESf7Wxv1eLg/cyYe1hLoDKe5nqN5Wz2ydu7Zu29lXnb4qGf9/K4gxZHDYKgRowX0pUdz6SGMx92nDn2dtW6LrbHvD1PopfUX8fdj77iAWqR7rpUaClbVY+RyFa/3XT7Ej7QpxPjkA08XXbmCa+a9wm7kQzAOc3vmX2/3/x+wD3z+PD/18++PL0/Hz+7sL13/2XFfCr8xcd8sef);lineShape=1;strokeColor=default;sketch=1;hachureGap=4;jiggle=2;curveFitting=1;fontFamily=Architects Daughter;fontSource=https%3A%2F%2Ffonts.googleapis.com%2Fcss%3Ffamily%3DArchitects%2BDaughter;" vertex="1" parent="1">
          <mxGeometry x="604.1579444169593" y="-726.035596070154" width="92.11898403782152" height="178.402511620033" as="geometry" />
        </mxCell>
      </root>
    </mxGraphModel>
  </diagram>
</mxfile>
